<?xml version="1.0" encoding="utf-8"?>
<!-- Generator: Adobe Illustrator 22.0.1, SVG Export Plug-In . SVG Version: 6.00 Build 0)  -->
<svg version="1.1" id="Layer_1" xmlns="http://www.w3.org/2000/svg" xmlns:xlink="http://www.w3.org/1999/xlink" x="0px" y="0px"
	 viewBox="0 0 612 212.3" style="enable-background:new 0 0 612 212.3;" xml:space="preserve">
<path d="M0.2,79.4H20V59.6H0.2V79.4z M0.2,59.6H20V39.7H0.2V59.6z M0.2,39.7H20V19.9H0.2V39.7z M0.2,19.9H20V0H0.2V19.9z M20,19.9
	h19.9V0H20V19.9z M39.9,19.9h19.9V0H39.9V19.9z M39.9,39.7h19.9V19.9H39.9V39.7z M39.9,59.6h19.9V39.7H39.9V59.6z M20,59.6h19.9
	V39.7H20V59.6z M79.6,19.9h19.9V0H79.6V19.9z M79.6,39.7h19.9V19.9H79.6V39.7z M79.6,59.6h19.9V39.7H79.6V59.6z M79.6,79.4h19.9
	V59.6H79.6V79.4z M119.3,59.6h19.9V39.7h-19.9V59.6z M119.3,79.4h19.9V59.6h-19.9V79.4z M119.3,19.9h19.9V0h-19.9V19.9z M159,19.9
	h19.9V0H159V19.9z M159,59.6h19.9V39.7H159V59.6z M159,79.4h19.9V59.6H159V79.4z M139.2,39.7H159V19.9h-19.9V39.7z M198.8,19.9h19.9
	V0h-19.9V19.9z M198.8,39.7h19.9V19.9h-19.9V39.7z M198.8,59.6h19.9V39.7h-19.9V59.6z M198.8,79.4h19.9V59.6h-19.9V79.4z
	 M218.6,39.7h27.8V19.9h-27.8V39.7z M218.6,19.9h27.8V0h-27.8V19.9z M218.6,79.4h27.8V59.6h-27.8V79.4z M266.3,19.9h19.9V0h-19.9
	V19.9z M266.3,39.7h19.9V19.9h-19.9V39.7z M266.3,59.6h19.9V39.7h-19.9V59.6z M266.3,79.4h19.9V59.6h-19.9V79.4z M286.1,79.4h29.8
	V59.6h-29.8V79.4z M329.8,19.9h19.9V0h-19.9V19.9z M329.8,39.7h19.9V19.9h-19.9V39.7z M329.8,59.6h19.9V39.7h-19.9V59.6z
	 M329.8,79.4h19.9V59.6h-19.9V79.4z M349.7,19.9h29.8V0h-29.8V19.9z M349.7,59.6h29.8V39.7h-29.8V59.6z M419.2,19.9h19.9V0h-19.9
	V19.9z M399.3,19.9h19.9V0h-19.9V19.9z M399.3,39.7h19.9V19.9h-19.9V39.7z M399.3,59.6h19.9V39.7h-19.9V59.6z M399.3,79.4h19.9V59.6
	h-19.9V79.4z M419.2,79.4h19.9V59.6h-19.9V79.4z M439.1,79.4h19.9V59.6h-19.9V79.4z M439.1,59.6h19.9V39.7h-19.9V59.6z M439.1,39.7
	h19.9V19.9h-19.9V39.7z M439.1,19.9h19.9V0h-19.9V19.9z M478.8,19.9h19.9V0h-19.9V19.9z M478.8,39.7h19.9V19.9h-19.9V39.7z
	 M478.8,59.6h19.9V39.7h-19.9V59.6z M478.8,79.4h19.9V59.6h-19.9V79.4z M498.6,19.9h19.9V0h-19.9V19.9z M518.5,19.9h19.9V0h-19.9
	V19.9z M518.5,39.7h19.9V19.9h-19.9V39.7z M518.5,59.6h19.9V39.7h-19.9V59.6z M518.5,79.4h19.9V59.6h-19.9V79.4z M552.3,19.9h20.9V0
	h-20.9V19.9z M573.1,19.9H593V0h-19.9V19.9z M593,19.9h20.9V0H593V19.9z M573.1,39.7H593V19.9h-19.9V39.7z M573.1,59.6H593V39.7
	h-19.9V59.6z M573.1,79.4H593V59.6h-19.9V79.4z M0.2,119.2H20V99.3H0.2V119.2z M0.2,139H20v-19.9H0.2V139z M0.2,158.9H20V139H0.2
	V158.9z M0.2,178.7H20v-19.9H0.2V178.7z M20,178.7h15.9v-19.9H20V178.7z M35.9,178.7h19.9v-19.9H35.9V178.7z M35.9,158.9h19.9V139
	H35.9V158.9z M35.9,139h19.9v-19.9H35.9V139z M35.9,119.2h19.9V99.3H35.9V119.2z M55.8,178.7h15.9v-19.9H55.8V178.7z M71.7,178.7
	h19.9v-19.9H71.7V178.7z M71.7,158.9h19.9V139H71.7V158.9z M71.7,139h19.9v-19.9H71.7V139z M71.7,119.2h19.9V99.3H71.7V119.2z
	 M131.2,119.2h19.9V99.3h-19.9V119.2z M111.4,119.2h19.9V99.3h-19.9V119.2z M111.4,139h19.9v-19.9h-19.9V139z M111.4,158.9h19.9V139
	h-19.9V158.9z M111.4,178.7h19.9v-19.9h-19.9V178.7z M131.2,178.7h19.9v-19.9h-19.9V178.7z M131.2,139h19.9v-19.9h-19.9V139z
	 M171,119.2h19.9V99.3H171V119.2z M171,139h19.9v-19.9H171V139z M171,158.9h19.9V139H171V158.9z M171,178.7h19.9v-19.9H171V178.7z
	 M190.8,119.2h19.9V99.3h-19.9V119.2z M210.7,119.2h19.9V99.3h-19.9V119.2z M210.7,139h19.9v-19.9h-19.9V139z M190.8,158.9h19.9V139
	h-19.9V158.9z M210.7,178.7h19.9v-19.9h-19.9V178.7z M250.4,119.2h19.9V99.3h-19.9V119.2z M250.4,178.7h19.9v-19.9h-19.9V178.7z
	 M250.4,158.9h19.9V139h-19.9V158.9z M250.4,139h19.9v-19.9h-19.9V139z M270.3,158.9h19.9V139h-19.9V158.9z M290.1,139H310v-19.9
	h-19.9V139z M290.1,119.2H310V99.3h-19.9V119.2z M290.1,178.7H310v-19.9h-19.9V178.7z M329.8,178.7h19.9v-19.9h-19.9V178.7z
	 M349.7,178.7h19.9v-19.9h-19.9V178.7z M349.7,139h19.9v-19.9h-19.9V139z M329.8,139h19.9v-19.9h-19.9V139z M329.8,119.2h19.9V99.3
	h-19.9V119.2z M349.7,119.2h19.9V99.3h-19.9V119.2z M349.7,158.9h19.9V139h-19.9V158.9z M383.5,119.2h15.9V99.3h-15.9V119.2z
	 M399.3,119.2h19.9V99.3h-19.9V119.2z M399.3,139h19.9v-19.9h-19.9V139z M399.3,158.9h19.9V139h-19.9V158.9z M399.3,178.7h19.9
	v-19.9h-19.9V178.7z M419.2,119.2h15.9V99.3h-15.9V119.2z M449,119.2h19.9V99.3H449V119.2z M449,139h19.9v-19.9H449V139z M449,158.9
	h19.9V139H449V158.9z M449,178.7h19.9v-19.9H449V178.7z M468.8,119.2h19.9V99.3h-19.9V119.2z M488.7,119.2h19.9V99.3h-19.9V119.2z
	 M488.7,139h19.9v-19.9h-19.9V139z M488.7,158.9h19.9V139h-19.9V158.9z M488.7,178.7h19.9v-19.9h-19.9V178.7z M468.8,158.9h19.9V139
	h-19.9V158.9z M522.5,119.2h15.9V99.3h-15.9V119.2z M538.4,119.2h19.9V99.3h-19.9V119.2z M558.2,119.2h19.9V99.3h-19.9V119.2z
	 M538.4,139h19.9v-19.9h-19.9V139z M538.4,158.9h19.9V139h-19.9V158.9z M538.4,178.7h19.9v-19.9h-19.9V178.7z M578.1,119.2h19.9
	V99.3h-19.9V119.2z M578.1,139h19.9v-19.9h-19.9V139z M578.1,158.9h19.9V139h-19.9V158.9z M578.1,178.7h19.9v-19.9h-19.9V178.7z
	 M597.9,119.2h15.9V99.3h-15.9V119.2z"/>
<path d="M445.3,194.5h3.9v-3.9h-3.9V194.5z M445.3,198.4h3.9v-3.9h-3.9V198.4z M445.3,202.3h3.9v-3.9h-3.9V202.3z M445.3,190.6h3.9
	v-3.9h-3.9V190.6z M449.2,194.5h3.9v-3.9h-3.9V194.5z M453.1,194.5h3.9v-3.9h-3.9V194.5z M453.1,190.6h3.9v-3.9h-3.9V190.6z
	 M453.1,198.4h3.9v-3.9h-3.9V198.4z M453.1,202.3h3.9v-3.9h-3.9V202.3z M460.9,190.6h3.9v-3.9h-3.9V190.6z M460.9,194.5h3.9v-3.9
	h-3.9V194.5z M460.9,198.4h3.9v-3.9h-3.9V198.4z M460.9,202.3h3.9v-3.9h-3.9V202.3z M464.8,202.3h3.9v-3.9h-3.9V202.3z M468.7,202.3
	h3.9v-3.9h-3.9V202.3z M468.7,198.4h3.9v-3.9h-3.9V198.4z M464.8,194.5h3.9v-3.9h-3.9V194.5z M464.8,190.6h3.9v-3.9h-3.9V190.6z
	 M468.7,190.6h3.9v-3.9h-3.9V190.6z M476.5,190.6h3.9v-3.9h-3.9V190.6z M476.5,194.5h3.9v-3.9h-3.9V194.5z M476.5,198.4h3.9v-3.9
	h-3.9V198.4z M476.5,202.3h3.9v-3.9h-3.9V202.3z M484.3,190.6h3.9v-3.9h-3.9V190.6z M480.4,194.5h3.9v-3.9h-3.9V194.5z M484.3,198.4
	h3.9v-3.9h-3.9V198.4z M484.3,202.3h3.9v-3.9h-3.9V202.3z M496,202.3h3.9v-3.9H496V202.3z M499.9,202.3h3.9v-3.9h-3.9V202.3z
	 M499.9,198.4h3.9v-3.9h-3.9V198.4z M499.9,194.5h3.9v-3.9h-3.9V194.5z M496,194.5h3.9v-3.9H496V194.5z M496,190.6h3.9v-3.9H496
	V190.6z M499.9,190.6h3.9v-3.9h-3.9V190.6z M507.7,190.6h3.9v-3.9h-3.9V190.6z M507.7,194.5h3.9v-3.9h-3.9V194.5z M507.7,198.4h3.9
	v-3.9h-3.9V198.4z M507.7,202.3h3.9v-3.9h-3.9V202.3z M511.6,190.6h3.9v-3.9h-3.9V190.6z M515.5,190.6h3.9v-3.9h-3.9V190.6z
	 M515.5,194.5h3.9v-3.9h-3.9V194.5z M515.5,198.4h3.9v-3.9h-3.9V198.4z M515.5,202.3h3.9v-3.9h-3.9V202.3z M519.4,190.6h3.9v-3.9
	h-3.9V190.6z M523.3,190.6h3.9v-3.9h-3.9V190.6z M523.3,194.5h3.9v-3.9h-3.9V194.5z M523.3,198.4h3.9v-3.9h-3.9V198.4z M523.3,202.3
	h3.9v-3.9h-3.9V202.3z M511.6,198.4h3.9v-3.9h-3.9V198.4z M519.4,198.4h3.9v-3.9h-3.9V198.4z M531.1,190.6h3.9v-3.9h-3.9V190.6z
	 M531.1,194.5h3.9v-3.9h-3.9V194.5z M531.1,198.4h3.9v-3.9h-3.9V198.4z M531.1,202.3h3.9v-3.9h-3.9V202.3z M535,190.6h3.9v-3.9H535
	V190.6z M538.9,190.6h3.9v-3.9h-3.9V190.6z M538.9,194.5h3.9v-3.9h-3.9V194.5z M535,198.4h3.9v-3.9H535V198.4z M538.9,202.3h3.9
	v-3.9h-3.9V202.3z M550.6,190.6h3.9v-3.9h-3.9V190.6z M554.5,190.6h3.9v-3.9h-3.9V190.6z M554.5,194.5h3.9v-3.9h-3.9V194.5z
	 M554.5,198.4h3.9v-3.9h-3.9V198.4z M550.6,198.4h3.9v-3.9h-3.9V198.4z M550.6,202.3h3.9v-3.9h-3.9V202.3z M554.5,202.3h3.9v-3.9
	h-3.9V202.3z M562.3,190.6h3.9v-3.9h-3.9V190.6z M566.2,190.6h3.9v-3.9h-3.9V190.6z M566.2,202.3h3.9v-3.9h-3.9V202.3z M562.3,202.3
	h3.9v-3.9h-3.9V202.3z M562.3,198.4h3.9v-3.9h-3.9V198.4z M562.3,194.5h3.9v-3.9h-3.9V194.5z M570.1,202.3h3.9v-3.9h-3.9V202.3z
	 M570.1,194.5h3.9v-3.9h-3.9V194.5z M570.1,190.6h3.9v-3.9h-3.9V190.6z M570.1,198.4h3.9v-3.9h-3.9V198.4z M577.9,190.6h3.9v-3.9
	h-3.9V190.6z M577.9,194.5h3.9v-3.9h-3.9V194.5z M577.9,198.4h3.9v-3.9h-3.9V198.4z M577.9,202.3h3.9v-3.9h-3.9V202.3z M585.7,190.6
	h3.9v-3.9h-3.9V190.6z M585.7,198.4h3.9v-3.9h-3.9V198.4z M585.7,202.3h3.9v-3.9h-3.9V202.3z M589.6,202.3h3.9v-3.9h-3.9V202.3z
	 M593.5,202.3h3.9v-3.9h-3.9V202.3z M593.5,198.4h3.9v-3.9h-3.9V198.4z M593.5,190.6h3.9v-3.9h-3.9V190.6z M589.6,190.6h3.9v-3.9
	h-3.9V190.6z M589.6,194.5h3.9v-3.9h-3.9V194.5z"/>
</svg>
