<?xml version="1.0" encoding="utf-8"?>
<!-- Generator: Adobe Illustrator 22.0.1, SVG Export Plug-In . SVG Version: 6.00 Build 0)  -->
<svg version="1.1" id="Layer_1" xmlns="http://www.w3.org/2000/svg" xmlns:xlink="http://www.w3.org/1999/xlink" x="0px" y="0px"
	 viewBox="0 0 612 135.2" style="enable-background:new 0 0 612 135.2;" xml:space="preserve">
<path d="M0,13.4h13.4V0H0V13.4z M0,26.8h13.4V13.4H0V26.8z M0,40.3h13.4V26.8H0V40.3z M0,67.1h13.4V53.7H0V67.1z M0,80.5h13.4V67.1
	H0V80.5z M0,94h13.4V80.5H0V94z M0,107.4h13.4V94H0V107.4z M0,120.8h13.4v-13.4H0V120.8z M0,134.2h13.4v-13.4H0V134.2z M0,53.7h13.4
	V40.3H0V53.7z M13.4,13.4h13.4V0H13.4V13.4z M26.7,13.4h13.4V0H26.7V13.4z M26.7,26.8h13.4V13.4H26.7V26.8z M26.7,40.3h13.4V26.8
	H26.7V40.3z M13.4,53.7h13.4V40.3H13.4V53.7z M26.7,67.1h13.4V53.7H26.7V67.1z M26.7,80.5h13.4V67.1H26.7V80.5z M26.7,94h13.4V80.5
	H26.7V94z M26.7,120.8h13.4v-13.4H26.7V120.8z M26.7,107.4h13.4V94H26.7V107.4z M13.4,134.2h13.4v-13.4H13.4V134.2z M53.4,13.4h13.4
	V0H53.4V13.4z M53.4,26.8h13.4V13.4H53.4V26.8z M53.4,40.3h13.4V26.8H53.4V40.3z M53.4,53.7h13.4V40.3H53.4V53.7z M53.4,67.1h13.4
	V53.7H53.4V67.1z M53.4,80.5h13.4V67.1H53.4V80.5z M53.4,94h13.4V80.5H53.4V94z M53.4,107.4h13.4V94H53.4V107.4z M53.4,120.8h13.4
	v-13.4H53.4V120.8z M53.4,134.2h13.4v-13.4H53.4V134.2z M66.8,134.2h13.4v-13.4H66.8V134.2z M80.2,120.8h13.4v-13.4H80.2V120.8z
	 M80.2,107.4h13.4V94H80.2V107.4z M80.2,94h13.4V80.5H80.2V94z M80.2,80.5h13.4V67.1H80.2V80.5z M80.2,67.1h13.4V53.7H80.2V67.1z
	 M80.2,53.7h13.4V40.3H80.2V53.7z M80.2,40.3h13.4V26.8H80.2V40.3z M80.2,26.8h13.4V13.4H80.2V26.8z M80.2,13.4h13.4V0H80.2V13.4z
	 M106.9,40.3h13.4V26.8h-13.4V40.3z M106.9,67.1h13.4V53.7h-13.4V67.1z M106.9,80.5h13.4V67.1h-13.4V80.5z M106.9,94h13.4V80.5
	h-13.4V94z M106.9,107.4h13.4V94h-13.4V107.4z M106.9,120.8h13.4v-13.4h-13.4V120.8z M106.9,134.2h13.4v-13.4h-13.4V134.2z
	 M106.9,53.7h13.4V40.3h-13.4V53.7z M133.6,13.4H147V0h-13.4V13.4z M133.6,26.8H147V13.4h-13.4V26.8z M133.6,40.3H147V26.8h-13.4
	V40.3z M133.6,53.7H147V40.3h-13.4V53.7z M133.6,67.1H147V53.7h-13.4V67.1z M133.6,80.5H147V67.1h-13.4V80.5z M133.6,94H147V80.5
	h-13.4V94z M133.6,107.4H147V94h-13.4V107.4z M133.6,120.8H147v-13.4h-13.4V120.8z M133.6,134.2H147v-13.4h-13.4V134.2z M147,134.2
	h13.4v-13.4H147V134.2z M160.3,134.2h13.4v-13.4h-13.4V134.2z M160.3,107.4h13.4V94h-13.4V107.4z M160.3,94h13.4V80.5h-13.4V94z
	 M160.3,67.1h13.4V53.7h-13.4V67.1z M160.3,40.3h13.4V26.8h-13.4V40.3z M160.3,26.8h13.4V13.4h-13.4V26.8z M160.3,13.4h13.4V0h-13.4
	V13.4z M160.3,53.7h13.4V40.3h-13.4V53.7z M160.3,80.5h13.4V67.1h-13.4V80.5z M173.7,107.4h13.4V94h-13.4V107.4z M187.1,94h13.4
	V80.5h-13.4V94z M187.1,80.5h13.4V67.1h-13.4V80.5z M187.1,67.1h13.4V53.7h-13.4V67.1z M187.1,53.7h13.4V40.3h-13.4V53.7z
	 M187.1,40.3h13.4V26.8h-13.4V40.3z M187.1,26.8h13.4V13.4h-13.4V26.8z M187.1,13.4h13.4V0h-13.4V13.4z M173.7,13.4h13.4V0h-13.4
	V13.4z M213.8,13.4h13.4V0h-13.4V13.4z M213.8,26.8h13.4V13.4h-13.4V26.8z M213.8,40.3h13.4V26.8h-13.4V40.3z M213.8,53.7h13.4V40.3
	h-13.4V53.7z M213.8,67.1h13.4V53.7h-13.4V67.1z M213.8,80.5h13.4V67.1h-13.4V80.5z M240.5,94h13.4V80.5h-13.4V94z M240.5,80.5h13.4
	V67.1h-13.4V80.5z M240.5,107.4h13.4V94h-13.4V107.4z M240.5,67.1h13.4V53.7h-13.4V67.1z M240.5,53.7h13.4V40.3h-13.4V53.7z
	 M240.5,40.3h13.4V26.8h-13.4V40.3z M240.5,26.8h13.4V13.4h-13.4V26.8z M240.5,13.4h13.4V0h-13.4V13.4z M253.9,13.4h13.4V0h-13.4
	V13.4z M267.2,13.4h13.4V0h-13.4V13.4z M267.2,26.8h13.4V13.4h-13.4V26.8z M267.2,40.3h13.4V26.8h-13.4V40.3z M267.2,53.7h13.4V40.3
	h-13.4V53.7z M267.2,67.1h13.4V53.7h-13.4V67.1z M267.2,80.5h13.4V67.1h-13.4V80.5z M267.2,94h13.4V80.5h-13.4V94z M267.2,107.4
	h13.4V94h-13.4V107.4z M267.2,120.8h13.4v-13.4h-13.4V120.8z M267.2,134.2h13.4v-13.4h-13.4V134.2z M294,134.2h13.4v-13.4H294V134.2
	z M294,120.8h13.4v-13.4H294V120.8z M294,107.4h13.4V94H294V107.4z M294,94h13.4V80.5H294V94z M294,80.5h13.4V67.1H294V80.5z
	 M294,67.1h13.4V53.7H294V67.1z M294,53.7h13.4V40.3H294V53.7z M294,40.3h13.4V26.8H294V40.3z M294,26.8h13.4V13.4H294V26.8z
	 M294,13.4h13.4V0H294V13.4z M307.3,134.2h13.4v-13.4h-13.4V134.2z M320.7,134.2h13.4v-13.4h-13.4V134.2z M320.7,120.8h13.4v-13.4
	h-13.4V120.8z M320.7,107.4h13.4V94h-13.4V107.4z M320.7,94h13.4V80.5h-13.4V94z M320.7,80.5h13.4V67.1h-13.4V80.5z M320.7,67.1
	h13.4V53.7h-13.4V67.1z M320.7,53.7h13.4V40.3h-13.4V53.7z M360.8,13.4h13.4V0h-13.4V13.4z M360.8,26.8h13.4V13.4h-13.4V26.8z
	 M360.8,40.3h13.4V26.8h-13.4V40.3z M360.8,80.5h13.4V67.1h-13.4V80.5z M360.8,94h13.4V80.5h-13.4V94z M360.8,107.4h13.4V94h-13.4
	V107.4z M360.8,120.8h13.4v-13.4h-13.4V120.8z M360.8,134.2h13.4v-13.4h-13.4V134.2z M374.1,134.2h13.4v-13.4h-13.4V134.2z
	 M387.5,120.8h13.4v-13.4h-13.4V120.8z M387.5,107.4h13.4V94h-13.4V107.4z M387.5,94h13.4V80.5h-13.4V94z M387.5,80.5h13.4V67.1
	h-13.4V80.5z M360.8,67.1h13.4V53.7h-13.4V67.1z M360.8,53.7h13.4V40.3h-13.4V53.7z M374.1,13.4h13.4V0h-13.4V13.4z M387.5,13.4
	h13.4V0h-13.4V13.4z M387.5,26.8h13.4V13.4h-13.4V26.8z M387.5,40.3h13.4V26.8h-13.4V40.3z M387.5,67.1h13.4V53.7h-13.4V67.1z
	 M374.1,53.7h13.4V40.3h-13.4V53.7z M414.2,13.4h13.4V0h-13.4V13.4z M414.2,26.8h13.4V13.4h-13.4V26.8z M414.2,40.3h13.4V26.8h-13.4
	V40.3z M414.2,53.7h13.4V40.3h-13.4V53.7z M414.2,67.1h13.4V53.7h-13.4V67.1z M414.2,80.5h13.4V67.1h-13.4V80.5z M414.2,107.4h13.4
	V94h-13.4V107.4z M414.2,120.8h13.4v-13.4h-13.4V120.8z M414.2,134.2h13.4v-13.4h-13.4V134.2z M441,134.2h13.4v-13.4H441V134.2z
	 M414.2,94h13.4V80.5h-13.4V94z M427.6,134.2H441v-13.4h-13.4V134.2z M441,107.4h13.4V94H441V107.4z M441,94h13.4V80.5H441V94z
	 M441,80.5h13.4V67.1H441V80.5z M441,67.1h13.4V53.7H441V67.1z M441,53.7h13.4V40.3H441V53.7z M441,40.3h13.4V26.8H441V40.3z
	 M441,26.8h13.4V13.4H441V26.8z M441,13.4h13.4V0H441V13.4z M454.3,13.4h13.4V0h-13.4V13.4z M467.7,13.4H481V0h-13.4V13.4z
	 M467.7,26.8H481V13.4h-13.4V26.8z M467.7,40.3H481V26.8h-13.4V40.3z M467.7,53.7H481V40.3h-13.4V53.7z M467.7,67.1H481V53.7h-13.4
	V67.1z M467.7,80.5H481V67.1h-13.4V80.5z M467.7,94H481V80.5h-13.4V94z M467.7,107.4H481V94h-13.4V107.4z M454.3,107.4h13.4V94
	h-13.4V107.4z M494.4,13.4h13.4V0h-13.4V13.4z M507.8,13.4h13.4V0h-13.4V13.4z M494.4,26.8h13.4V13.4h-13.4V26.8z M494.4,40.3h13.4
	V26.8h-13.4V40.3z M494.4,53.7h13.4V40.3h-13.4V53.7z M494.4,67.1h13.4V53.7h-13.4V67.1z M494.4,80.5h13.4V67.1h-13.4V80.5z
	 M494.4,94h13.4V80.5h-13.4V94z M494.4,107.4h13.4V94h-13.4V107.4z M494.4,120.8h13.4v-13.4h-13.4V120.8z M494.4,134.2h13.4v-13.4
	h-13.4V134.2z M507.8,134.2h13.4v-13.4h-13.4V134.2z M213.8,94h13.4V80.5h-13.4V94z M213.8,107.4h13.4V94h-13.4V107.4z M531.8,13.4
	h13.4V0h-13.4V13.4z M531.8,26.8h13.4V13.4h-13.4V26.8z M531.8,40.3h13.4V26.8h-13.4V40.3z M531.8,53.7h13.4V40.3h-13.4V53.7z
	 M531.8,67.1h13.4V53.7h-13.4V67.1z M531.8,80.5h13.4V67.1h-13.4V80.5z M531.8,94h13.4V80.5h-13.4V94z M531.8,107.4h13.4V94h-13.4
	V107.4z M531.8,120.8h13.4v-13.4h-13.4V120.8z M531.8,134.2h13.4v-13.4h-13.4V134.2z M545.2,53.7h13.4V40.3h-13.4V53.7z M558.6,40.3
	h13.4V26.8h-13.4V40.3z M558.6,26.8h13.4V13.4h-13.4V26.8z M558.6,13.4h13.4V0h-13.4V13.4z M558.6,67.1h13.4V53.7h-13.4V67.1z
	 M558.6,80.5h13.4V67.1h-13.4V80.5z M558.6,94h13.4V80.5h-13.4V94z M558.6,107.4h13.4V94h-13.4V107.4z M558.6,120.8h13.4v-13.4
	h-13.4V120.8z M558.6,134.2h13.4v-13.4h-13.4V134.2z M585.3,134.2h13.4v-13.4h-13.4V134.2z M598.6,134.2H612v-13.4h-13.4V134.2z
	 M598.6,120.8H612v-13.4h-13.4V120.8z M598.6,107.4H612V94h-13.4V107.4z M598.6,94H612V80.5h-13.4V94z M598.6,80.5H612V67.1h-13.4
	V80.5z M598.6,67.1H612V53.7h-13.4V67.1z M585.3,67.1h13.4V53.7h-13.4V67.1z M585.3,53.7h13.4V40.3h-13.4V53.7z M585.3,40.3h13.4
	V26.8h-13.4V40.3z M585.3,26.8h13.4V13.4h-13.4V26.8z M585.3,13.4h13.4V0h-13.4V13.4z M598.6,13.4H612V0h-13.4V13.4z M213.8,120.8
	h13.4v-13.4h-13.4V120.8z M213.8,134.2h13.4v-13.4h-13.4V134.2z M240.5,120.8h13.4v-13.4h-13.4V120.8z M240.5,134.2h13.4v-13.4
	h-13.4V134.2z M106.9,13.4h13.4V0h-13.4V13.4z M307.3,13.4h13.4V0h-13.4V13.4z"/>
</svg>
